<?xml version="1.0" encoding="UTF-8"?>
<svg xmlns="http://www.w3.org/2000/svg" xmlns:xlink="http://www.w3.org/1999/xlink" width="365pt" height="156.46pt" viewBox="0 0 365 156.46" version="1.1">
<defs>
<clipPath id="clip1">
  <path d="M 0 0 L 145 0 L 145 156.460938 L 0 156.460938 Z M 0 0 "/>
</clipPath>
<clipPath id="clip2">
  <path d="M 110 0 L 236 0 L 236 156.460938 L 110 156.460938 Z M 110 0 "/>
</clipPath>
</defs>
<g id="surface1">
<g clip-path="url(#clip1)" clip-rule="nonzero">
<path style=" stroke:none;fill-rule:nonzero;fill:rgb(5.499268%,30.198669%,61.999512%);fill-opacity:1;" d="M 18.933594 47.367188 C 18.933594 63.28125 26.917969 74.011719 45.636719 83.257813 L 71.835938 96.097656 C 79.226563 99.707031 85.871094 103.804688 85.871094 114.054688 C 85.871094 124.570313 77.328125 131.90625 65.089844 131.90625 C 52.828125 131.90625 44.898438 123.941406 44.898438 111.605469 L 45.007813 107.453125 L 0.320313 107.453125 L 0.28125 107.816406 C 0 110.550781 0 113.234375 0 115.597656 C 0 129.921875 4.859375 140.066406 14.855469 146.597656 C 25.003906 153.238281 40.679688 156.460938 62.765625 156.460938 C 105.890625 156.460938 131.632813 137.300781 131.632813 105.199219 C 131.632813 90.125 123.742188 78.78125 108.167969 71.472656 L 81.101563 58.941406 C 70.40625 53.972656 64.972656 47.519531 64.972656 39.738281 C 64.972656 30.710938 72.164063 24.636719 82.839844 24.636719 C 94 24.636719 100.136719 30.863281 100.136719 42.191406 L 100.046875 44.816406 L 144.027344 44.816406 L 144.050781 44.445313 C 144.253906 41.828125 144.441406 39.277344 144.441406 36.980469 C 144.441406 6.492188 113.316406 0.09375 87.21875 0.09375 C 43.175781 0.09375 18.933594 16.882813 18.933594 47.378906 "/>
</g>
<g clip-path="url(#clip2)" clip-rule="nonzero">
<path style=" stroke:none;fill-rule:nonzero;fill:rgb(5.499268%,30.198669%,61.999512%);fill-opacity:1;" d="M 178.5625 0.0859375 C 160.746094 0.0859375 146.164063 2.835938 135.132813 8.125 C 143.898438 15.074219 148.496094 24.882813 148.496094 36.972656 C 148.496094 39.429688 148.304688 42.074219 148.078125 44.785156 L 147.757813 49.0625 L 110.3125 49.0625 C 110.871094 64.066406 118.9375 74.347656 136.988281 83.257813 L 163.179688 96.097656 C 170.574219 99.707031 177.222656 103.804688 177.222656 114.054688 C 177.222656 124.570313 168.679688 131.90625 156.453125 131.90625 C 144.171875 131.90625 136.242188 123.941406 136.242188 111.605469 L 136.359375 107.453125 L 135.628906 107.453125 C 135.042969 123.632813 128.203125 137.050781 115.710938 146.339844 C 114.28125 147.40625 112.765625 148.402344 111.1875 149.355469 C 121.242188 154.121094 135.355469 156.457031 154.117188 156.457031 C 197.242188 156.457031 222.984375 137.296875 222.984375 105.195313 C 222.984375 90.121094 215.089844 78.78125 199.515625 71.46875 L 172.453125 58.9375 C 161.765625 53.96875 156.320313 47.515625 156.320313 39.738281 C 156.320313 30.707031 163.515625 24.632813 174.199219 24.632813 C 185.339844 24.632813 191.480469 30.859375 191.480469 42.1875 L 191.394531 44.8125 L 235.375 44.8125 L 235.402344 44.441406 C 235.605469 41.824219 235.789063 39.273438 235.789063 36.976563 C 235.789063 6.492188 204.675781 0.0898438 178.5625 0.0898438 "/>
</g>
<path style=" stroke:none;fill-rule:nonzero;fill:rgb(5.499268%,30.198669%,61.999512%);fill-opacity:1;" d="M 285.386719 152.105469 L 336.070313 151.761719 L 359.96875 64.980469 L 362.992188 53.164063 C 364.378906 47.957031 365 42.964844 365 36.976563 C 365 14.167969 349.851563 -0.00390625 325.449219 -0.00390625 C 305.753906 -0.00390625 283.335938 9.253906 267.308594 30.523438 C 267.308594 29.640625 274.476563 3.671875 274.476563 3.671875 L 224.640625 3.671875 L 224.273438 5.722656 L 224.246094 5.84375 C 234.804688 12.933594 240.347656 23.578125 240.347656 36.972656 C 240.347656 39.449219 240.15625 42.101563 239.949219 44.820313 L 239.585938 49.59375 L 213.34375 49.59375 C 211.75 55.410156 209.785156 62.632813 207.632813 70.480469 C 220.679688 78.613281 227.539063 90.488281 227.539063 105.183594 C 227.539063 122.550781 220.558594 136.929688 207.355469 146.757813 C 204.953125 148.546875 202.347656 150.179688 199.554688 151.644531 L 236.132813 151.644531 L 257.402344 73.828125 C 262.933594 53.226563 272.28125 29.597656 295.472656 29.597656 C 304.800781 29.597656 312.101563 36.195313 312.101563 44.625 C 312.101563 48.898438 311.679688 55.484375 309.660156 62.554688 L 309.773438 62.476563 L 309.28125 63.945313 L 290.128906 134.003906 L 287.296875 144.3125 L 287.246094 144.386719 L 287.242188 144.53125 L 286.773438 146.238281 "/>
</g>
</svg>
